<svg width="128" height="128" xmlns="http://www.w3.org/2000/svg">

 <title/>
 <g>
  <title>background</title>
  <rect fill="none" id="canvas_background" height="402" width="582" y="-1" x="-1"/>
 </g>
 <g>
  <title>Layer 1</title>
  <path fill="#d8d8dd" id="svg_1" d="m40.16,56.07c-15.74,0 -28.49,-14.52 -28.49,-32.42q0,-0.84 0,-1.67a1.42,1.42 0 0 0 -2.66,-0.799999a41.07,41.07 0 0 0 -5.01,19.93c0,20.66 14.719999,37.409996 32.880001,37.409996s17.23,-22.449997 3.279999,-22.449997z" class="cls-1"/>
  <path fill="#9fa0ac" id="svg_2" d="m40.16,56.07a25.780001,25.780001 0 0 1 -14.33,-4.400002c-1.289999,4.93 -6.77,7.120003 -14.44,4.93a8.9,8.9 0 0 1 -6.14,-5.299999c3.9,15.700001 16.58,27.219997 31.630001,27.219997c18.119999,0 17.23,-22.449997 3.279999,-22.449997z" class="cls-2"/>
  <path fill="#d8d8dd" id="svg_3" d="m87.839996,56.07c15.740005,0 28.490005,-14.52 28.490005,-32.42q0,-0.84 0,-1.67a1.42,1.42 0 0 1 2.659996,-0.799999a41.07,41.07 0 0 1 5.010002,19.93c0,20.66 -14.720001,37.409996 -32.879997,37.409996s-17.230003,-22.449997 -3.280006,-22.449997z" class="cls-1"/>
  <path fill="#9fa0ac" id="svg_4" d="m82.629997,61c-1.459999,-0.799999 -3.399994,2.700001 -4.599998,2c-2.229996,6.599998 1.620003,15.540001 13.090004,15.540001c18.159996,0 32.879997,-16.75 32.879997,-37.41c0,-0.59 0,-1.170002 -0.059998,-1.760002c-4.050003,19.420002 -19.389999,33.630001 -41.310005,21.630001z" class="cls-2"/>
  <path fill="#bc5b57" id="svg_5" d="m102,75.639999a38.450001,38.450001 0 0 0 -42.560001,-38.139999c-18.98,1.93 -34.439999,19.75 -34.439999,38.82l0,8.68l77,0l0,-9.360001z" class="cls-3"/>
  <path opacity="0.3" fill="#393c54" id="svg_6" d="m89,74.769997a25.530001,25.530001 0 0 0 -23.660004,-25.489998c-15.019997,-1.07 -27.339996,11.040001 -27.339996,26.099998l0,5.620003l51,0l0,-6.230003z" class="cls-4"/>
  <path opacity="0.3" fill="#393c54" id="svg_7" d="m102,84l0,-8.360001a38.490002,38.490002 0 0 0 -0.43,-5.639999l-76,0a36.169998,36.169998 0 0 0 -0.57,6.32l0,7.68l77,0z" class="cls-4"/>
  <rect fill="#f8dc25" id="svg_8" y="75" x="19" width="90" ry="7.5" rx="7.5" height="15" class="cls-5"/>
  <polygon fill="#f2bc0f" id="svg_9" points="72 36.26 64 32.97 56 36.26 56 79 72 79 72 36.26" class="cls-6"/>
  <circle fill="#f1f3f4" id="svg_10" r="3.5" cy="45.5" cx="64" class="cls-7"/>
  <circle fill="#f1f3f4" id="svg_11" r="3.5" cy="59.5" cx="64" class="cls-7"/>
  <path fill="#f2bc0f" id="svg_12" d="m26.09,84l5.91,6l64,0l6,-6a2.19,2.19 0 0 0 0,-3.099998l-6,-5.900002l-64,0l-6,6a2.19,2.19 0 0 0 0.09,3z" class="cls-6"/>
  <path fill="#f8dc25" id="svg_13" d="m30.379999,84l5.950003,6l55.339996,0l6,-6a2.19,2.19 0 0 0 0,-3.099998l-5.949997,-6l-55.389999,0l-6.000002,6a2.19,2.19 0 0 0 0.049999,3.099998z" class="cls-5"/>
  <path fill="#f2bc0f" id="svg_14" d="m47.52,84l5.950001,6l21.059998,0l6,-6a2.19,2.19 0 0 0 0,-3.099998l-5.949997,-6l-21.110001,0l-6,6a2.19,2.19 0 0 0 0.049999,3.099998z" class="cls-6"/>
  <path fill="#f8dc25" id="svg_15" d="m79,82.5l-13.449997,12.790001a2.19,2.19 0 0 1 -3.100002,0l-13.450001,-12.790001l13.450001,-13.790001a2.19,2.19 0 0 1 3.100002,0l13.449997,13.790001z" class="cls-5"/>
  <path fill="#f8dc25" id="svg_16" d="m72,104.480003l-6.459999,5.309998a2.46,2.46 0 0 1 -3.080002,0l-6.459999,-5.309998l0,-17.480003l16,0l0,17.480003z" class="cls-5"/>
  <rect fill="#f85565" id="svg_17" y="145.750001" x="17.440001" width="13.38" transform="rotate(-45, -39.87, 69.54)" ry="1.35" rx="1.35" height="13.38" class="cls-8"/>
  <path opacity="0.2" fill="#ffffff" id="svg_18" d="m67.379997,79.519997l-2.379997,-2.419998a1.35,1.35 0 0 0 -1.91,0l-3.77,3.770004l2.420002,2.419998a1.35,1.35 0 0 0 1.91,0l3.729996,-3.770004z" class="cls-9"/>
  <path opacity="0.3" fill="#393c54" id="svg_19" d="m72.5,81.940002l-1.739998,-1.740005l-7.160004,7.150002a1.35,1.35 0 0 1 -1.91,0l-5.799999,-5.799995l-0.399998,0.399994a1.35,1.35 0 0 0 0,1.910004l7.509998,7.540001a1.35,1.35 0 0 0 1.910004,0l7.549995,-7.550003a1.35,1.35 0 0 0 0.040001,-1.909996z" class="cls-4"/>
  <circle fill="#f1f3f4" id="svg_20" r="3.5" cy="99.5" cx="64" class="cls-7"/>
 </g>
</svg>